Coordinates
version=1
nRows=11
nColumns=63
inDegrees=yes

Units are S.I. units (second, meters, Newtons, ...)
If the header above contains a line with 'inDegrees', this indicates whether rotational values are in degrees (yes) or radians (no).

endheader
time	pelvis_tilt	pelvis_list	pelvis_rotation	pelvis_tx	pelvis_ty	pelvis_tz	hip_flexion_r	hip_adduction_r	hip_rotation_r	knee_angle_r	knee_angle_r_beta	ankle_angle_r	subtalar_angle_r	mtp_angle_r	hip_flexion_l	hip_adduction_l	hip_rotation_l	knee_angle_l	knee_angle_l_beta	ankle_angle_l	subtalar_angle_l	mtp_angle_l	L5_S1_Flex_Ext	L5_S1_Lat_Bending	L5_S1_axial_rotation	L4_L5_Flex_Ext	L4_L5_Lat_Bending	L4_L5_axial_rotation	L3_L4_Flex_Ext	L3_L4_Lat_Bending	L3_L4_axial_rotation	L2_L3_Flex_Ext	L2_L3_Lat_Bending	L2_L3_axial_rotation	L1_L2_Flex_Ext	L1_L2_Lat_Bending	L1_L2_axial_rotation	L1_T12_Flex_Ext	L1_T12_Lat_Bending	L1_T12_axial_rotation	Abs_r3	Abs_r2	Abs_r1	Abs_t1	Abs_t2	neck_flexion	neck_bending	neck_rotation	arm_flex_r	arm_add_r	arm_rot_r	elbow_flex_r	pro_sup_r	wrist_flex_r	wrist_dev_r	arm_flex_l	arm_add_l	arm_rot_l	elbow_flex_l	pro_sup_l	wrist_flex_l	wrist_dev_l
4.100000	-4.792416	-5.560038	72.099176	0.243457	0.400301	0.919228	3.993542	-1.190397	3.117208	10.978796	0.191616	24.769692	-4.418201	0.000000	1.643030	-0.285769	-4.288926	5.964054	0.104092	27.446453	5.080366	0.000000	-0.150356	-1.745461	1.693528	-0.279227	-2.321463	1.799374	-0.247020	-4.243913	1.799374	-0.171842	-4.243913	1.481837	-0.139621	-3.559344	1.375992	-0.085914	-2.703719	1.270146	-1.073979	-19.745002	9.418896	0.000000	0.000000	16.355958	-27.275964	36.306301	61.935491	0.095852	39.416385	136.633441	63.786585	0.999156	-8.634023	38.091595	-6.993031	8.087893	149.654995	88.702857	-16.093767	2.896629
4.125000	-4.790696	-5.462368	71.561161	0.244797	0.400414	0.919171	3.944284	-1.114265	4.094495	11.014519	0.192240	24.604323	-5.071785	0.000000	1.461069	-0.329524	-5.059388	5.993951	0.104614	27.517131	5.420496	0.000000	-0.151685	-1.756845	1.788958	-0.281695	-2.336604	1.900767	-0.249204	-4.271593	1.900767	-0.173361	-4.271593	1.565338	-0.140855	-3.582559	1.453528	-0.086673	-2.721353	1.341718	-1.083474	-19.873783	9.949645	0.000000	0.000000	16.508035	-27.302299	36.446546	61.904080	0.187151	39.333202	136.642290	62.435846	1.298877	-8.929326	38.417151	-7.046789	8.227857	149.645935	88.735640	-16.184712	2.982992
4.150000	-4.782891	-5.358236	71.197620	0.245918	0.400576	0.918949	3.841569	-1.041452	4.982004	11.005460	0.192082	24.394338	-5.836401	0.000000	1.291259	-0.363348	-5.657039	6.036352	0.105354	27.568378	5.761930	0.000000	-0.151050	-1.767770	1.849007	-0.280515	-2.351135	1.964570	-0.248160	-4.298157	1.964570	-0.172635	-4.298157	1.617881	-0.140265	-3.604837	1.502318	-0.086310	-2.738276	1.386755	-1.078936	-19.997373	10.283622	0.000000	0.000000	16.521114	-27.297245	36.489471	61.827937	0.268777	39.274460	136.591757	60.836470	1.650006	-8.950537	38.656165	-7.172010	8.386110	149.640466	88.655106	-16.474999	2.880811
4.175000	-4.779374	-5.242774	70.875319	0.246992	0.400794	0.918585	3.707844	-0.982643	5.853645	10.981547	0.191664	24.134447	-6.648846	0.000000	1.094263	-0.379854	-6.146018	6.047641	0.105551	27.556935	6.017860	0.000000	-0.149569	-1.778688	1.906008	-0.277764	-2.365655	2.025134	-0.245726	-4.324702	2.025134	-0.170942	-4.324702	1.667757	-0.138889	-3.627101	1.548632	-0.085463	-2.755188	1.429506	-1.068353	-20.120876	10.600647	0.000000	0.000000	16.398573	-27.267601	36.435223	61.644321	0.340759	39.113553	136.549384	60.110653	1.857124	-8.704809	38.773644	-7.299776	8.415668	149.639185	88.562974	-16.504453	2.828829
4.200000	-4.757085	-5.127799	70.636261	0.247899	0.401032	0.918144	3.554535	-0.918731	6.620517	10.958676	0.191265	23.809280	-7.470477	0.000000	0.900560	-0.399018	-6.446257	6.062825	0.105816	27.502224	6.135185	0.000000	-0.149986	-1.785320	1.951371	-0.278538	-2.374475	2.073331	-0.246412	-4.340827	2.073331	-0.171419	-4.340827	1.707449	-0.139277	-3.640624	1.585489	-0.085702	-2.765460	1.463528	-1.071333	-20.195895	10.852938	0.000000	0.000000	16.223985	-27.250999	36.334229	61.382298	0.371820	38.834684	136.513993	59.792999	2.225632	-8.217101	38.784325	-7.427274	8.451688	149.641622	88.465040	-16.581457	2.760697
4.225000	-4.740253	-5.022366	70.486914	0.248653	0.401250	0.917637	3.393218	-0.868264	7.301090	10.937413	0.190894	23.411335	-8.348084	0.000000	0.724454	-0.401974	-6.595768	6.078354	0.106087	27.405584	6.179382	0.000000	-0.150510	-1.790851	1.985314	-0.279512	-2.381831	2.109396	-0.247273	-4.354274	2.109396	-0.172018	-4.354274	1.737150	-0.139764	-3.651902	1.613068	-0.086001	-2.774027	1.488985	-1.075078	-20.258459	11.041720	0.000000	0.000000	15.990170	-27.241093	36.193719	61.044804	0.340601	38.511019	136.550676	60.160122	2.321250	-7.490774	38.709954	-7.554462	8.476635	149.647531	88.386441	-16.661429	2.829457
4.250000	-4.732168	-4.916993	70.417964	0.249266	0.401439	0.917075	3.216708	-0.836579	7.906962	10.915958	0.190519	22.958121	-9.276392	0.000000	0.553094	-0.380261	-6.520872	6.085097	0.106205	27.258255	6.047307	0.000000	-0.151462	-1.795824	2.002457	-0.281281	-2.388446	2.127610	-0.248838	-4.366366	2.127610	-0.173106	-4.366366	1.752150	-0.140648	-3.662044	1.626996	-0.086546	-2.781731	1.501843	-1.081881	-20.314719	11.137064	0.000000	0.000000	15.758850	-27.244942	36.127471	60.634458	0.291608	38.088526	136.618635	61.173132	2.434098	-6.541769	38.550026	-7.696593	8.451350	149.656508	88.329840	-16.706688	2.980888
4.275000	-4.738351	-4.807927	70.374413	0.249833	0.401581	0.916499	3.034136	-0.826983	8.474467	10.894603	0.190147	22.493098	-10.206837	0.000000	0.376133	-0.328529	-6.286212	6.072349	0.105982	27.071134	5.755577	0.000000	-0.151626	-1.801402	2.013865	-0.281584	-2.395865	2.139732	-0.249106	-4.379929	2.139732	-0.173293	-4.379929	1.762132	-0.140800	-3.673419	1.636266	-0.086639	-2.790372	1.510399	-1.083048	-20.377821	11.200515	0.000000	0.000000	15.574186	-27.275221	36.170366	60.182056	0.208764	37.647373	136.711883	62.715420	2.271689	-5.475837	38.316578	-7.854090	8.380122	149.668934	88.277240	-16.721739	3.145609
4.300000	-4.763026	-4.685408	70.376039	0.250358	0.401688	0.915913	2.840665	-0.844669	8.967070	10.878864	0.189872	22.072764	-11.079330	0.000000	0.192250	-0.253808	-5.993755	6.050800	0.105606	26.884180	5.457395	0.000000	-0.152703	-1.808362	2.017591	-0.283585	-2.405121	2.143690	-0.250876	-4.396851	2.143690	-0.174524	-4.396851	1.765392	-0.141800	-3.687612	1.639293	-0.087255	-2.801153	1.513193	-1.090743	-20.456552	11.221236	0.000000	0.000000	15.450932	-27.370897	36.304665	59.712199	0.101373	37.255039	136.816502	64.692974	1.624417	-4.391501	38.017125	-8.038776	8.274227	149.684334	88.225900	-16.722871	3.181086
4.325000	-4.813615	-4.556149	70.420926	0.250863	0.401761	0.915327	2.647384	-0.888512	9.421397	10.864815	0.189627	21.723811	-11.922351	0.000000	0.013624	-0.149697	-5.629569	6.013692	0.104959	26.716114	5.099412	0.000000	-0.152701	-1.818018	2.017308	-0.283581	-2.417964	2.143390	-0.250872	-4.420329	2.143390	-0.174522	-4.420329	1.765145	-0.141798	-3.707302	1.639063	-0.087253	-2.816110	1.512981	-1.090727	-20.565782	11.219664	0.000000	0.000000	15.336343	-27.543509	36.456477	59.226899	-0.017651	36.928579	136.920808	66.810733	0.703453	-3.399081	37.654317	-8.246965	8.128597	149.701083	88.175193	-16.666797	3.081787
4.350000	-4.897496	-4.419783	70.485937	0.251399	0.401821	0.914810	2.468517	-0.964119	9.834179	10.851177	0.189389	21.500258	-12.659109	0.000000	-0.136125	-0.033211	-5.586490	5.997090	0.104669	26.658094	5.146343	0.000000	-0.153195	-1.832074	2.021992	-0.284498	-2.436659	2.148366	-0.251684	-4.454506	2.148366	-0.175086	-4.454506	1.769243	-0.142257	-3.735966	1.642868	-0.087536	-2.837883	1.516494	-1.094255	-20.724791	11.245712	0.000000	0.000000	15.213244	-27.765144	36.569816	58.771608	-0.138937	36.719635	137.054009	68.884865	-0.513201	-2.483223	37.279824	-8.467962	7.989671	149.715973	88.130799	-16.613884	2.947319
